<?xml version="1.0" encoding="UTF-8"?>
<svg version="1.1" xmlns="http://www.w3.org/2000/svg" width="1024" height="1024">
<path d="M0 0 C2.5479701 -0.00302425 5.09593929 -0.0069151 7.64390689 -0.01159257 C13.1620334 -0.0197108 18.68010803 -0.0216831 24.19823837 -0.01808929 C32.40445352 -0.01275906 40.61063302 -0.01890084 48.81684429 -0.02717223 C64.32955743 -0.04237941 79.84225419 -0.04412066 95.35497322 -0.0416492 C107.33810968 -0.03981354 119.32124081 -0.04158186 131.3043766 -0.04587364 C133.02856067 -0.04647605 134.75274474 -0.04707725 136.4769288 -0.04767724 C139.07540823 -0.04858454 141.67388765 -0.04949321 144.27236707 -0.0504096 C168.41931118 -0.05883429 192.56625329 -0.06317819 216.71319866 -0.05900288 C218.07748136 -0.05876831 218.07748136 -0.05876831 219.46932532 -0.05852901 C224.07869234 -0.05772328 228.68805935 -0.05687751 233.29742637 -0.05601571 C234.2127905 -0.05584462 235.12815463 -0.05567353 236.07125707 -0.05549726 C237.92234409 -0.0551506 239.77343112 -0.05480207 241.62451814 -0.05445167 C270.42041129 -0.04909579 299.21627382 -0.05702311 328.01216125 -0.07548523 C360.3974682 -0.09622456 392.78275618 -0.10692423 425.16807014 -0.10290974 C428.62460792 -0.10251443 432.0811457 -0.10215287 435.53768349 -0.10181236 C436.81422415 -0.10167627 436.81422415 -0.10167627 438.11655351 -0.10153742 C450.93544439 -0.1003739 463.75431605 -0.10700102 476.57320213 -0.11762428 C491.16120949 -0.12970165 505.74917465 -0.13120612 520.33718266 -0.11883412 C528.48905797 -0.11222902 536.64083219 -0.11378198 544.79269931 -0.12742263 C550.89763509 -0.13669676 557.00246088 -0.13009284 563.10738871 -0.11757483 C565.56352618 -0.11493582 568.01967559 -0.11726915 570.47580131 -0.1253107 C589.53130743 -0.18332875 607.84513782 1.40217744 626.38056946 6.01069641 C627.4292218 6.26963684 628.47787415 6.52857727 629.55830383 6.79536438 C662.22775628 15.12199356 692.30074833 31.27429803 717.75556946 53.26069641 C718.66564758 54.04057922 719.57572571 54.82046204 720.51338196 55.62397766 C722.97623077 57.78985918 725.37552345 60.00414336 727.75556946 62.26069641 C728.25121399 62.7291095 728.74685852 63.19752258 729.25752258 63.68013 C737.60290091 71.62243568 744.88763323 80.0217484 751.75556946 89.26069641 C752.17934875 89.81837708 752.60312805 90.37605774 753.03974915 90.95063782 C760.29773276 100.50986528 766.23306024 110.61411779 771.75556946 121.26069641 C772.14631653 122.00948059 772.5370636 122.75826477 772.93965149 123.52973938 C790.00189271 156.64466411 796.07852724 191.6204388 796.01626587 228.50512695 C796.01929012 231.05309705 796.02318097 233.60106624 796.02785844 236.14903384 C796.03597667 241.66716035 796.03794897 247.18523499 796.03435516 252.70336533 C796.02902493 260.90958047 796.03516671 269.11575997 796.0434381 277.32197125 C796.05864528 292.83468438 796.06038653 308.34738114 796.05791507 323.86010017 C796.05607941 335.84323664 796.05784773 347.82636776 796.06213951 359.80950356 C796.06274192 361.53368762 796.06334312 363.25787169 796.06394311 364.98205576 C796.06485041 367.58053518 796.06575908 370.1790146 796.06667547 372.77749402 C796.07510016 396.92443813 796.07944406 421.07138024 796.07526875 445.21832561 C796.07511237 446.12784741 796.07495599 447.03736921 796.07479488 447.97445227 C796.07398915 452.5838193 796.07314338 457.19318631 796.07228158 461.80255332 C796.07211049 462.71791745 796.0719394 463.63328158 796.07176313 464.57638402 C796.07141647 466.42747105 796.07106794 468.27855807 796.07071754 470.1296451 C796.06536166 498.92553825 796.07328898 527.72140077 796.0917511 556.51728821 C796.11249043 588.90259516 796.1231901 621.28788313 796.11917561 653.67319709 C796.11878029 657.12973487 796.11841874 660.58627265 796.11807823 664.04281044 C796.11794213 665.3193511 796.11794213 665.3193511 796.11780329 666.62168046 C796.11663977 679.44057135 796.12326689 692.259443 796.13389015 705.07832909 C796.14596752 719.66633645 796.14747199 734.2543016 796.13509998 748.84230962 C796.12849489 756.99418492 796.13004785 765.14595915 796.1436885 773.29782626 C796.15296262 779.40276205 796.14635871 785.50758784 796.1338407 791.61251567 C796.13120169 794.06865313 796.13353502 796.52480254 796.14157657 798.98092826 C796.19959461 818.03643438 794.61408843 836.35026477 790.00556946 854.88569641 C789.74662903 855.93434875 789.4876886 856.9830011 789.22090149 858.06343079 C780.89427231 890.73288323 764.74196784 920.80587528 742.75556946 946.26069641 C741.97568665 947.17077454 741.19580383 948.08085266 740.39228821 949.01850891 C738.22640669 951.48135773 736.01212251 953.8806504 733.75556946 956.26069641 C733.28715637 956.75634094 732.81874329 957.25198547 732.33613586 957.76264954 C724.39383019 966.10802786 715.99451747 973.39276019 706.75556946 980.26069641 C706.19788879 980.68447571 705.64020813 981.108255 705.06562805 981.5448761 C695.50640059 988.80285971 685.40214808 994.7381872 674.75556946 1000.26069641 C673.63239319 1000.84681702 673.63239319 1000.84681702 672.48652649 1001.44477844 C639.37160176 1018.50701966 604.39582707 1024.58365419 567.51113892 1024.52139282 C564.96316882 1024.52441707 562.41519963 1024.52830792 559.86723202 1024.53298539 C554.34910551 1024.54110363 548.83103088 1024.54307592 543.31290054 1024.53948212 C535.1066854 1024.53415188 526.90050589 1024.54029366 518.69429462 1024.54856505 C503.18158149 1024.56377224 487.66888473 1024.56551348 472.1561657 1024.56304202 C460.17302923 1024.56120637 448.18989811 1024.56297469 436.20676231 1024.56726646 C434.48257825 1024.56786888 432.75839418 1024.56847008 431.03421011 1024.56907007 C428.43573069 1024.56997736 425.83725127 1024.57088603 423.23877185 1024.57180242 C399.09182774 1024.58022711 374.94488563 1024.58457101 350.79794025 1024.5803957 C349.88841846 1024.58023932 348.97889666 1024.58008295 348.04181359 1024.57992183 C343.43244657 1024.5791161 338.82307956 1024.57827033 334.21371255 1024.57740853 C333.29834842 1024.57723744 332.38298429 1024.57706635 331.43988185 1024.57689008 C329.58879482 1024.57654342 327.7377078 1024.57619489 325.88662077 1024.5758445 C297.09072762 1024.57048861 268.2948651 1024.57841593 239.49897766 1024.59687805 C207.11367071 1024.61761738 174.72838274 1024.62831705 142.34306878 1024.62430257 C138.886531 1024.62390725 135.42999322 1024.6235457 131.97345543 1024.62320518 C131.12242832 1024.62311445 130.27140121 1024.62302372 129.39458541 1024.62293024 C116.57569452 1024.62176672 103.75682287 1024.62839384 90.93793678 1024.63901711 C76.34992942 1024.65109447 61.76196427 1024.65259895 47.17395625 1024.64022694 C39.02208095 1024.63362184 30.87030672 1024.6351748 22.7184396 1024.64881545 C16.61350382 1024.65808958 10.50867803 1024.65148566 4.4037502 1024.63896766 C1.94761273 1024.63632864 -0.50853667 1024.63866197 -2.9646624 1024.64670352 C-22.02016852 1024.70472157 -40.3339989 1023.11921539 -58.86943054 1018.51069641 C-60.44240906 1018.12228577 -60.44240906 1018.12228577 -62.04716492 1017.72602844 C-94.71661736 1009.39939926 -124.78960941 993.24709479 -150.24443054 971.26069641 C-151.15450867 970.4808136 -152.06458679 969.70093079 -153.00224304 968.89741516 C-155.46509186 966.73153365 -157.86438453 964.51724947 -160.24443054 962.26069641 C-160.74007507 961.79228333 -161.2357196 961.32387024 -161.74638367 960.84126282 C-170.09176199 952.89895714 -177.37649432 944.49964443 -184.24443054 935.26069641 C-184.66820984 934.70301575 -185.09198914 934.14533508 -185.52861023 933.570755 C-192.78659385 924.01152754 -198.72192133 913.90727504 -204.24443054 903.26069641 C-204.83055115 902.13752014 -204.83055115 902.13752014 -205.42851257 900.99165344 C-222.49075379 867.87672871 -228.56738832 832.90095402 -228.50512695 796.01626587 C-228.5081512 793.46829577 -228.51204205 790.92032658 -228.51671952 788.37235898 C-228.52483776 782.85423247 -228.52681005 777.33615783 -228.52321625 771.8180275 C-228.51788601 763.61181235 -228.52402779 755.40563285 -228.53229918 747.19942157 C-228.54750637 731.68670844 -228.54924761 716.17401168 -228.54677615 700.66129265 C-228.5449405 688.67815619 -228.54670882 676.69502506 -228.5510006 664.71188927 C-228.55160301 662.9877052 -228.55220421 661.26352113 -228.5528042 659.53933707 C-228.55371149 656.94085764 -228.55462016 654.34237822 -228.55553655 651.7438988 C-228.56396124 627.59695469 -228.56830514 603.45001258 -228.56412983 579.30306721 C-228.56397345 578.39354541 -228.56381708 577.48402361 -228.56365596 576.54694055 C-228.56285023 571.93757353 -228.56200446 567.32820651 -228.56114266 562.7188395 C-228.56097157 561.80347537 -228.56080049 560.88811124 -228.56062421 559.9450088 C-228.56027756 558.09392178 -228.55992903 556.24283475 -228.55957863 554.39174773 C-228.55422274 525.59585457 -228.56215006 496.79999205 -228.58061218 468.00410461 C-228.60135151 435.61879767 -228.61205118 403.23350969 -228.6080367 370.84819573 C-228.60764138 367.39165795 -228.60727983 363.93512017 -228.60693932 360.47858238 C-228.60684858 359.62755527 -228.60675785 358.77652817 -228.60666437 357.89971236 C-228.60550085 345.08082147 -228.61212797 332.26194982 -228.62275124 319.44306374 C-228.6348286 304.85505637 -228.63633308 290.26709122 -228.62396107 275.67908321 C-228.61735597 267.5272079 -228.61890893 259.37543367 -228.63254958 251.22356656 C-228.64182371 245.11863078 -228.63521979 239.01380499 -228.62270179 232.90887716 C-228.62006278 230.45273969 -228.6223961 227.99659028 -228.63043765 225.54046456 C-228.6884557 206.48495844 -227.10294952 188.17112805 -222.49443054 169.63569641 C-222.23549011 168.58704407 -221.97654968 167.53839172 -221.70976257 166.45796204 C-213.38313339 133.78850959 -197.23082892 103.71551754 -175.24443054 78.26069641 C-174.46454773 77.35061829 -173.68466492 76.44054016 -172.88114929 75.50288391 C-170.71526778 73.0400351 -168.5009836 70.64074242 -166.24443054 68.26069641 C-165.77601746 67.76505188 -165.30760437 67.26940735 -164.82499695 66.75874329 C-156.88269127 58.41336496 -148.48337856 51.12863263 -139.24443054 44.26069641 C-138.68674988 43.83691711 -138.12906921 43.41313782 -137.55448914 42.97651672 C-127.99526168 35.71853311 -117.89100917 29.78320562 -107.24443054 24.26069641 C-106.49564636 23.86994934 -105.74686218 23.47920227 -104.97538757 23.07661438 C-71.86046284 6.01437316 -36.88468815 -0.06226137 0 0 Z " fill="#000000" transform="translate(228.2444305419922,-0.2606964111328125)"/>
<path d="M0 0 C1.52329293 -0.00187299 3.04658538 -0.00417561 4.56987709 -0.00686532 C8.71629118 -0.01292956 12.86268496 -0.01285614 17.00910246 -0.01167095 C21.49669233 -0.01146557 25.98427591 -0.01699874 30.47186279 -0.02172852 C39.24946278 -0.0300062 48.02705605 -0.03278205 56.80465961 -0.03334089 C63.94611821 -0.03381745 71.08757461 -0.03587916 78.22903252 -0.03904152 C98.51482615 -0.04784044 118.8006145 -0.05246212 139.08641005 -0.05171105 C140.17816558 -0.05167109 141.26992111 -0.05163113 142.39476013 -0.05158997 C143.48786206 -0.05154909 144.58096398 -0.0515082 145.70719021 -0.05146609 C163.41040493 -0.05105989 181.11359835 -0.06062469 198.81680692 -0.07472833 C217.03202294 -0.08912437 235.2472286 -0.09599674 253.46245044 -0.09513456 C263.67371231 -0.09480369 273.88495186 -0.09750226 284.09620857 -0.10831261 C292.79201433 -0.11746022 301.48778764 -0.11955814 310.18359614 -0.11280318 C314.61152538 -0.10955927 319.03939252 -0.1094033 323.46731567 -0.11815643 C340.868042 -0.15041807 358.12370227 -0.15426553 375.41111755 2.13371277 C376.64325265 2.29351529 377.87538774 2.45331781 379.14486027 2.61796284 C382.01561685 3.00997558 384.86773331 3.45820764 387.72361755 3.94621277 C388.72215759 4.11580505 389.72069763 4.28539734 390.74949646 4.46012878 C405.22425889 7.04116234 422.16080744 10.74771488 432.41111755 22.13371277 C436.09485128 27.88033738 434.95459748 36.03083032 433.84861755 42.50871277 C428.54853761 62.86249201 412.05230571 81.5645575 394.1650238 92.10246277 C381.96287504 98.88896052 369.12420417 102.78524082 355.41111755 105.13371277 C354.43392761 105.31248962 353.45673767 105.49126648 352.44993591 105.67546082 C342.06377023 107.39419906 331.8491308 107.4008649 321.34861755 107.32121277 C319.46059799 107.31364543 317.57257709 107.3064077 315.68455505 107.29948425 C303.09073022 107.23723767 290.50066972 107.02566534 277.91111755 106.69621277 C277.14806305 106.67674591 276.38500854 106.65727905 275.59883118 106.63722229 C268.04292261 106.43738049 260.53876893 106.11956901 253.0141449 105.3634491 C248.17659366 104.93649958 243.32610675 104.84544738 238.47361755 104.69621277 C231.12060286 104.46623845 223.78895168 104.189823 216.45140076 103.65007019 C186.46885353 101.50999359 156.42122686 101.82891146 126.38086098 101.87657541 C120.27140277 101.88524627 114.16202728 101.87905603 108.05257428 101.86931777 C102.0574889 101.86015767 96.06243849 101.8589996 90.06734836 101.86419511 C86.52924024 101.86725862 82.99118727 101.86788309 79.45308304 101.86112213 C61.31907497 101.83116088 43.33166533 102.1179371 25.41111755 105.13371277 C23.42385796 105.22431731 21.43637725 105.31314138 19.44798279 105.37394714 C11.07708494 105.64590256 3.1979662 106.76173518 -4.95484924 108.67399597 C-9.4951395 109.73642687 -13.91106752 110.4646107 -18.56202698 110.84489441 C-20.6889907 111.14797777 -22.42458371 111.74320137 -24.40138245 112.57121277 C-27.74240171 113.95278733 -30.88559076 114.55937539 -34.46388245 115.07121277 C-40.28345142 115.95185372 -45.24318482 117.72438426 -50.58888245 120.13371277 C-52.22856995 120.84527527 -52.22856995 120.84527527 -53.90138245 121.57121277 C-54.45567932 121.81613464 -55.0099762 122.06105652 -55.58106995 122.31340027 C-57.14929528 122.9541149 -58.74416412 123.52971583 -60.34669495 124.07902527 C-95.82960554 136.54599386 -126.48538625 168.41732118 -143.2724762 201.44621277 C-155.74090415 227.81336216 -160.24568951 256.11478249 -159.58888245 285.13371277 C-159.56052307 286.38668152 -159.5321637 287.63965027 -159.50294495 288.93058777 C-157.88568079 327.28285196 -140.67035989 362.51270367 -114.58888245 390.13371277 C-113.86700745 390.92004089 -113.14513245 391.70636902 -112.40138245 392.51652527 C-100.97879891 404.51795594 -87.15864404 414.3174391 -72.58888245 422.13371277 C-71.52661438 422.70581482 -71.52661438 422.70581482 -70.44288635 423.28947449 C-36.63362247 441.15555967 -0.11123827 441.26087819 37.15769386 441.3023777 C42.12657604 441.30839993 47.09539075 441.32503968 52.0642395 441.34371948 C53.78078553 441.35005342 55.49733159 441.35637908 57.21387768 441.36269665 C58.07236856 441.36586246 58.93085944 441.36902827 59.8153652 441.37229002 C71.34556235 441.41400832 82.87572278 441.44732848 94.4059906 441.4596405 C102.23689629 441.46808696 110.0676281 441.49080359 117.89844674 441.52899617 C122.01758597 441.54851055 126.13646697 441.56124465 130.25565529 441.55616188 C185.2517804 441.50093181 185.2517804 441.50093181 203.03611755 456.32121277 C209.07776618 463.47579667 210.0042508 470.07954909 209.7353363 479.35246277 C208.01028962 499.47107956 197.0712301 518.54629138 182.41111755 532.13371277 C181.7665863 532.74859558 181.12205505 533.36347839 180.45799255 533.99699402 C167.43124415 546.09000696 151.74763468 552.18492161 134.41111755 555.13371277 C132.87197693 555.40634949 132.87197693 555.40634949 131.30174255 555.68449402 C109.31092982 559.19766044 87.1026218 559.46094941 64.89353943 559.39445496 C61.07232045 559.38312233 57.2513821 559.38981014 53.43017292 559.4013319 C38.12649283 559.44043932 22.87723823 559.22553415 7.6025238 558.23136902 C5.78003616 558.11278534 5.78003616 558.11278534 3.92073059 557.99180603 C-73.97463966 552.42395573 -145.65677475 524.38353238 -199.58888245 467.13371277 C-201.75145956 464.56410395 -203.83818921 461.9635723 -205.87013245 459.28996277 C-207.64179975 457.06732561 -209.57462799 455.13590582 -211.58888245 453.13371277 C-213.69616585 450.54621733 -215.63310607 447.83700944 -217.58888245 445.13371277 C-218.12513245 444.40281433 -218.66138245 443.67191589 -219.21388245 442.91886902 C-224.47258142 435.60294753 -229.10228768 427.93756446 -233.58888245 420.13371277 C-233.95239807 419.506745 -234.3159137 418.87977722 -234.69044495 418.23381042 C-246.8835116 396.9781812 -255.15437821 373.97203989 -260.58888245 350.13371277 C-260.79593811 349.23475281 -261.00299377 348.33579285 -261.21632385 347.40959167 C-277.49885702 274.36452924 -265.59646893 192.10333295 -225.72999573 128.46452332 C-224.36786854 126.34157928 -222.98487362 124.23452828 -221.58888245 122.13371277 C-221.11482971 121.41779968 -220.64077698 120.7018866 -220.15235901 119.96427917 C-213.45068708 109.94310843 -206.10113318 100.69790521 -198.03614807 91.74406433 C-196.76544161 90.3301676 -195.51168254 88.90107798 -194.26075745 87.46965027 C-189.85277216 82.45760774 -185.23144695 77.67747543 -180.52638245 72.94621277 C-179.96056458 72.37572205 -179.3947467 71.80523132 -178.81178284 71.217453 C-164.11667952 56.57736375 -147.29420442 44.82236296 -129.58888245 34.13371277 C-128.96948792 33.7537616 -128.35009338 33.37381042 -127.71192932 32.98234558 C-89.37006335 9.53199351 -44.53799672 -0.05269909 0 0 Z " fill="#FDFDFB" transform="translate(433.58888244628906,223.8662872314453)"/>
<path d="M0 0 C6.44292225 0.00431594 12.88582473 0.00125854 19.32874572 -0.00362718 C25.67393774 -0.00823698 32.01912152 -0.00877145 38.36431468 -0.00618851 C42.10010374 -0.00466863 45.8358798 -0.0043079 49.57166791 -0.007725 C65.43693494 -0.0202245 81.28598875 0.12980035 97.14531827 0.58608985 C97.85384104 0.6063025 98.56236381 0.62651515 99.29235697 0.6473403 C178.37091535 2.95221522 178.37091535 2.95221522 201.62432218 18.12857032 C202.61432218 18.74732032 203.60432218 19.36607032 204.62432218 20.00357032 C208.41687059 24.03315301 209.76046375 28.85143754 210.06182218 34.31607032 C209.20161791 53.04940771 196.76377595 69.80996578 184.62432218 83.12857032 C183.61966174 84.37482767 182.61873659 85.62412225 181.62432218 86.87857032 C174.74240079 94.84503519 165.64833368 100.86354325 156.62432218 106.12857032 C155.70522061 106.70349219 154.78611905 107.27841407 153.83916593 107.87075782 C137.25285415 117.30671268 116.90261843 120.22798306 98.12822843 121.80899024 C97.4113668 121.87130029 96.69450517 121.93361034 95.95592046 121.99780858 C78.15146669 123.51290358 60.36001339 123.55432962 42.5032742 123.49861526 C37.88314299 123.48700474 33.26301855 123.49143001 28.64287686 123.49336219 C20.90472072 123.49423539 13.16665382 123.48336665 5.42852139 123.46475196 C-3.43876839 123.44353927 -12.30592846 123.44009329 -21.17323852 123.44631392 C-29.81872795 123.45206149 -38.46417306 123.44630293 -47.1096561 123.43514037 C-50.7389168 123.43057119 -54.36814971 123.42958618 -57.99741244 123.43172622 C-138.20520027 123.45970505 -138.20520027 123.45970505 -158.92255282 104.83950782 C-164.24331051 99.21521698 -168.18252718 93.16987687 -171.37567782 86.12857032 C-171.71599032 85.38607032 -172.05630282 84.64357032 -172.40692782 83.87857032 C-176.93918238 71.79255816 -175.5989582 56.67218368 -170.37567782 45.12857032 C-169.97477939 44.14759376 -169.57388095 43.16661719 -169.16083407 42.15591407 C-161.78552653 25.58819422 -146.95728458 13.79397959 -130.37567782 7.12857032 C-116.10903349 2.33330991 -101.46385381 0.83346746 -86.47724032 0.51138282 C-85.35318223 0.48372525 -85.35318223 0.48372525 -84.20641589 0.45550895 C-56.14839052 -0.22059288 -28.06432899 -0.02096269 0 0 Z " fill="#0362E4" transform="translate(552.3756778240204,435.87142968177795)"/>
<path d="M0 0 C11.05023896 9.28370416 18.02760186 21.9575796 20.359375 36.1171875 C21.6760015 51.881121 17.56118008 66.15695519 8.2890625 78.98046875 C-0.70003682 89.59662727 -13.79710399 97.04693285 -27.640625 99.1171875 C-44.80719029 100.27555087 -59.5517248 96.19633021 -72.890625 84.9296875 C-84.49049225 73.97425732 -90.41984528 59.59440453 -90.953125 43.8046875 C-90.57199035 27.13004672 -84.30428268 13.41680328 -72.359375 1.921875 C-50.986989 -16.32792214 -22.5273765 -16.06241934 0 0 Z " fill="#0665E7" transform="translate(792.640625,680.8828125)"/>
<path d="M0 0 C6.44292225 0.00431594 12.88582473 0.00125854 19.32874572 -0.00362718 C25.67393774 -0.00823698 32.01912152 -0.00877145 38.36431468 -0.00618851 C42.10010374 -0.00466863 45.8358798 -0.0043079 49.57166791 -0.007725 C70.938506 -0.02468554 92.26943024 0.41467332 113.62432218 1.12857032 C113.62432218 1.45857032 113.62432218 1.78857032 113.62432218 2.12857032 C112.53340677 2.13188046 111.44249137 2.13519061 110.31851792 2.13860106 C83.74279123 2.21968722 57.16712168 2.31203077 30.59147477 2.4160974 C17.7395616 2.46616462 4.88765461 2.51260817 -7.96430087 2.55044532 C-19.16939322 2.58344325 -30.37443668 2.6233174 -41.57947499 2.67136037 C-47.50940091 2.69654787 -53.43929474 2.71835189 -59.3692596 2.73191428 C-64.95802 2.74480514 -70.54666986 2.76693453 -76.13536906 2.79595351 C-78.17945666 2.80497461 -80.22356203 2.81070664 -82.26766849 2.81278396 C-99.62363504 1.63999883 -99.62363504 1.63999883 -115.04317641 6.68982482 C-115.70276461 7.40200384 -115.70276461 7.40200384 -116.37567782 8.12857032 C-119.06317782 8.31607032 -119.06317782 8.31607032 -121.37567782 8.12857032 C-121.37567782 7.46857032 -121.37567782 6.80857032 -121.37567782 6.12857032 C-122.11817782 6.47919532 -122.86067782 6.82982032 -123.62567782 7.19107032 C-126.58690657 8.20058012 -127.49630343 8.00837916 -130.37567782 7.12857032 C-128.17054896 6.49235667 -125.96131097 5.87038649 -123.75067782 5.25357032 C-122.5209122 4.90552344 -121.29114657 4.55747657 -120.02411532 4.19888282 C-109.01408082 1.46224328 -97.77734676 0.75423893 -86.47724032 0.51138282 C-85.35318223 0.48372525 -85.35318223 0.48372525 -84.20641589 0.45550895 C-56.14839052 -0.22059288 -28.06432899 -0.02096269 0 0 Z " fill="#2167C4" transform="translate(552.3756778240204,435.87142968177795)"/>
<path d="M0 0 C28.86896417 -0.87042103 70.30267292 -0.8409099 93 20 C94.90077425 22.6438961 95.64576658 24.78082607 96 28 C96.08378906 28.70898438 96.16757812 29.41796875 96.25390625 30.1484375 C96.57924913 36.13054855 94.96414776 41.3998406 93 47 C92.67 47 92.34 47 92 47 C92.165 45.783125 92.33 44.56625 92.5 43.3125 C93.19161175 37.2146274 93.08524443 31.12812763 93 25 C89.71303767 24.20046862 88.28976808 23.90341064 85 25 C85 22.36 85 19.72 85 17 C81.26513121 16.4254048 77.78706732 16 74 16 C72.31301918 15.38655243 70.64034193 14.72904086 69 14 C69 13.01 69 12.02 69 11 C65.63337307 8.95283493 63.21095862 8.83692722 59.3125 9 C54.72753599 9.07761729 50.8031879 8.71882377 46.37890625 7.578125 C41.64558614 6.42782717 36.80814946 5.76474797 32 5 C32 4.34 32 3.68 32 3 C21.44 2.34 10.88 1.68 0 1 C0 0.67 0 0.34 0 0 Z " fill="#1070D3" transform="translate(666,438)"/>
<path d="M0 0 C0.66 0.33 1.32 0.66 2 1 C-0.625 4.875 -0.625 4.875 -4 6 C-4.33 6.99 -4.66 7.98 -5 9 C-4.505 9.99 -4.505 9.99 -4 11 C-5.03125 10.773125 -6.0625 10.54625 -7.125 10.3125 C-11.5398476 9.9564639 -13.33326306 10.61235734 -17 13 C-17.99 14.485 -17.99 14.485 -19 16 C-19.66 16.28875 -20.32 16.5775 -21 16.875 C-23.71440441 18.40185248 -24.08583347 20.10513932 -25 23 C-24.01 23.33 -23.02 23.66 -22 24 C-22 24.99 -22 25.98 -22 27 C-22.598125 27.12375 -23.19625 27.2475 -23.8125 27.375 C-26.26231348 27.95475985 -26.26231348 27.95475985 -29 30 C-30.32 30 -31.64 30 -33 30 C-33 31.65 -33 33.3 -33 35 C-33.66 35 -34.32 35 -35 35 C-35.33 36.32 -35.66 37.64 -36 39 C-36.66 39 -37.32 39 -38 39 C-33.82795765 23.09408853 -21.89007777 11.93834209 -8.14038086 3.82958984 C-5.45621591 2.29031123 -2.942521 0.98084033 0 0 Z " fill="#0A6EE4" transform="translate(420,444)"/>
<path d="M0 0 C19.71419975 -0.59439798 39.70016088 0.91681824 59 5 C55.48560378 7.34293081 54.53922896 7.14659323 50.45703125 6.7578125 C49.38388672 6.66113281 48.31074219 6.56445312 47.20507812 6.46484375 C46.08552734 6.35269531 44.96597656 6.24054688 43.8125 6.125 C42.68134766 6.02058594 41.55019531 5.91617187 40.38476562 5.80859375 C37.58874593 5.54904762 34.79412165 5.27912734 32 5 C32 4.34 32 3.68 32 3 C21.44 2.34 10.88 1.68 0 1 C0 0.67 0 0.34 0 0 Z " fill="#1E6CC8" transform="translate(666,438)"/>
<path d="M0 0 C1.65 0.33 3.3 0.66 5 1 C5.33 2.32 5.66 3.64 6 5 C5.401875 5.12375 4.80375 5.2475 4.1875 5.375 C1.73768652 5.95475985 1.73768652 5.95475985 -1 8 C-2.32 8 -3.64 8 -5 8 C-5 9.65 -5 11.3 -5 13 C-5.66 13 -6.32 13 -7 13 C-7.33 14.32 -7.66 15.64 -8 17 C-8.66 17 -9.32 17 -10 17 C-8.36151333 11.41425 -6.72396501 6.53858236 -3 2 C-2.01 2 -1.02 2 0 2 C0 1.34 0 0.68 0 0 Z " fill="#076FED" transform="translate(392,466)"/>
<path d="M0 0 C1.15893637 2.89734092 0.95821002 4.1457337 0.078125 7.21484375 C-1.13927203 11.48896593 -1.29700563 15.1557226 -1.25 19.5625 C-1.25773437 20.29146484 -1.26546875 21.02042969 -1.2734375 21.77148438 C-1.2573217 26.24764647 -0.6040996 29.76695939 1 34 C1 34.66 1 35.32 1 36 C2.32 36.66 3.64 37.32 5 38 C4.67 40.31 4.34 42.62 4 45 C-1.18133895 40.60551195 -2.58937913 33.21600519 -3.22460938 26.69384766 C-3.73405774 17.52931459 -3.69741262 8.56127089 0 0 Z " fill="#2468C0" transform="translate(381,483)"/>
<path d="M0 0 C1.32 0 2.64 0 4 0 C4 0.66 4 1.32 4 2 C5.65 2 7.3 2 9 2 C9 2.66 9 3.32 9 4 C9.91523438 4.12117187 10.83046875 4.24234375 11.7734375 4.3671875 C13.55621094 4.61855469 13.55621094 4.61855469 15.375 4.875 C16.55835938 5.03742187 17.74171875 5.19984375 18.9609375 5.3671875 C22 6 22 6 24 8 C26.42715206 8.67940467 26.42715206 8.67940467 29.125 9.125 C30.03507812 9.29257812 30.94515625 9.46015625 31.8828125 9.6328125 C32.58148438 9.75398437 33.28015625 9.87515625 34 10 C34 10.33 34 10.66 34 11 C28.85765441 11.1731878 24.21805313 10.63276565 19.25 9.375 C18.55841797 9.20258789 17.86683594 9.03017578 17.15429688 8.85253906 C10.89578764 7.17915638 5.46815707 4.47552356 0 1 C0 0.67 0 0.34 0 0 Z " fill="#165CB0" transform="translate(401,545)"/>
<path d="M0 0 C0 0.33 0 0.66 0 1 C-0.59014893 1.07516846 -1.18029785 1.15033691 -1.78833008 1.2277832 C-4.46495426 1.57622104 -7.13855041 1.94412175 -9.8125 2.3125 C-10.74126953 2.43044922 -11.67003906 2.54839844 -12.62695312 2.66992188 C-13.51962891 2.79560547 -14.41230469 2.92128906 -15.33203125 3.05078125 C-16.15421143 3.16075439 -16.9763916 3.27072754 -17.82348633 3.3840332 C-20.34571917 4.09784066 -21.22895085 5.13092578 -23 7 C-25.6875 7.1875 -25.6875 7.1875 -28 7 C-28 6.34 -28 5.68 -28 5 C-28.7425 5.350625 -29.485 5.70125 -30.25 6.0625 C-33.21122875 7.0720098 -34.12062561 6.87980884 -37 6 C-24.86379275 2.49851724 -12.73422506 -0.509369 0 0 Z " fill="#1B62BB" transform="translate(459,437)"/>
<path d="M0 0 C0 0.66 0 1.32 0 2 C0.66 2 1.32 2 2 2 C1.74204721 5.4823626 0.78438795 6.18808711 -1.9375 8.5625 C-2.948125 9.366875 -3.95875 10.17125 -5 11 C-5.99 12.485 -5.99 12.485 -7 14 C-7.66 14 -8.32 14 -9 14 C-9 12.68 -9 11.36 -9 10 C-8.34 9.67 -7.68 9.34 -7 9 C-6.67 8.01 -6.34 7.02 -6 6 C-5.34 6 -4.68 6 -4 6 C-4 4.35 -4 2.7 -4 1 C-2 0 -2 0 0 0 Z " fill="#0570F0" transform="translate(391,473)"/>
<path d="M0 0 C1.60407328 -0.02708567 3.2082785 -0.04643483 4.8125 -0.0625 C5.70582031 -0.07410156 6.59914063 -0.08570313 7.51953125 -0.09765625 C10 0 10 0 13 1 C13 1.66 13 2.32 13 3 C15.31 3 17.62 3 20 3 C19.67 3.99 19.34 4.98 19 6 C13.39 5.34 7.78 4.68 2 4 C2 3.67 2 3.34 2 3 C3.98 2.67 5.96 2.34 8 2 C5.36 1.67 2.72 1.34 0 1 C0 0.67 0 0.34 0 0 Z " fill="#0570E9" transform="translate(685,440)"/>
<path d="M0 0 C0.66 0.33 1.32 0.66 2 1 C0.75698364 3.08778475 -0.49400741 5.17004064 -1.75 7.25 C-2.09804688 7.83652344 -2.44609375 8.42304688 -2.8046875 9.02734375 C-4.88518309 12.45630871 -7.03214619 15.2995204 -10 18 C-9.835 17.236875 -9.67 16.47375 -9.5 15.6875 C-8.90854604 12.96403764 -8.90854604 12.96403764 -9 10 C-7.37660195 8.29115995 -5.70680947 6.62553283 -4 5 C-3.34 4.01 -2.68 3.02 -2 2 C-1.34 2 -0.68 2 0 2 C0 1.34 0 0.68 0 0 Z " fill="#1569D6" transform="translate(753,493)"/>
<path d="M0 0 C0.66 0.33 1.32 0.66 2 1 C0.0398607 4.72426467 -1.27539364 6.19777111 -5 8 C-6.26804566 10.0335948 -6.26804566 10.0335948 -7 12 C-7.99 12 -8.98 12 -10 12 C-10 12.66 -10 13.32 -10 14 C-10.66 13.67 -11.32 13.34 -12 13 C-8.13635705 8.51282966 -4.25209792 4.12324647 0 0 Z " fill="#2269BB" transform="translate(402,454)"/>
<path d="M0 0 C-3.3661564 1.89294858 -6.68270219 2.76552027 -10.4375 3.625 C-12.10619141 4.01558594 -12.10619141 4.01558594 -13.80859375 4.4140625 C-16.6383116 4.93359454 -19.13549955 5.11779254 -22 5 C-19.64046906 2.64046906 -18.22104383 2.50858587 -15 2 C-15 1.67 -15 1.34 -15 1 C-9.92928099 0.28832014 -5.11791642 -0.10662326 0 0 Z " fill="#1556B3" transform="translate(683,551)"/>
<path d="M0 0 C2.475 0.495 2.475 0.495 5 1 C5.33 1.99 5.66 2.98 6 4 C7.32 3.67 8.64 3.34 10 3 C10.144375 3.94875 10.28875 4.8975 10.4375 5.875 C10.82935399 8.8934494 10.82935399 8.8934494 12 11 C6.41133327 9.6451717 3.34726118 5.38906005 0 1 C0 0.67 0 0.34 0 0 Z " fill="#1661B7" transform="translate(389,534)"/>
<path d="M0 0 C6.6 0.33 13.2 0.66 20 1 C20 1.66 20 2.32 20 3 C12.73709149 4.32052882 6.30006504 4.20004336 0 0 Z " fill="#0874E5" transform="translate(707,443)"/>
<path d="M0 0 C5.46864457 1.01591421 10.76390013 2.07091057 16 4 C16 4.33 16 4.66 16 5 C14.37536158 5.05395478 12.75021459 5.09277195 11.125 5.125 C9.76761719 5.15980469 9.76761719 5.15980469 8.3828125 5.1953125 C6 5 6 5 4 3 C1.93125966 2.3574765 1.93125966 2.3574765 0 2 C0 1.34 0 0.68 0 0 Z " fill="#1F70C2" transform="translate(727,444)"/>
<path d="M0 0 C1.24546405 2.49092811 0.7767578 3.41080733 0 6 C-0.66 6 -1.32 6 -2 6 C-2 7.65 -2 9.3 -2 11 C-2.66 11 -3.32 11 -4 11 C-4.33 12.32 -4.66 13.64 -5 15 C-5.66 15 -6.32 15 -7 15 C-5.34292168 9.35086937 -3.52237988 4.73699363 0 0 Z " fill="#226DCA" transform="translate(389,468)"/>
<path d="M0 0 C0.99 0.66 1.98 1.32 3 2 C2.154375 2.66 1.30875 3.32 0.4375 4 C-3.49923221 7.26025317 -6.72376794 11.09372332 -10 15 C-10 10.79452429 -7.63261876 8.83289639 -5 5.8125 C-4.52304688 5.25369141 -4.04609375 4.69488281 -3.5546875 4.11914062 C-2.37633794 2.74047164 -1.18901048 1.36948528 0 0 Z " fill="#DCDCDA" transform="translate(234,317)"/>
<path d="M0 0 C1.32 0 2.64 0 4 0 C4 0.66 4 1.32 4 2 C5.65 2 7.3 2 9 2 C9 2.66 9 3.32 9 4 C10.65 4.33 12.3 4.66 14 5 C14 5.66 14 6.32 14 7 C10.2397015 6.41892368 7.46964968 5.34800504 4.1875 3.4375 C3.39730469 2.98246094 2.60710937 2.52742187 1.79296875 2.05859375 C1.20128906 1.70925781 0.60960937 1.35992188 0 1 C0 0.67 0 0.34 0 0 Z " fill="#15539F" transform="translate(401,545)"/>
<path d="M0 0 C-0.33 1.32 -0.66 2.64 -1 4 C-4.3 4.66 -7.6 5.32 -11 6 C-7.92832129 2.92832129 -4.55956968 0 0 0 Z " fill="#DCDDD3" transform="translate(320,250)"/>
<path d="M0 0 C-1.62170379 1.00533667 -3.24747237 2.00411907 -4.875 3 C-6.23238281 3.8353125 -6.23238281 3.8353125 -7.6171875 4.6875 C-10 6 -10 6 -12 6 C-12 5.34 -12 4.68 -12 4 C-10.56988027 3.13353333 -9.13059381 2.28218171 -7.6875 1.4375 C-6.48673828 0.72400391 -6.48673828 0.72400391 -5.26171875 -0.00390625 C-3 -1 -3 -1 0 0 Z " fill="#1A62C1" transform="translate(717,537)"/>
<path d="M0 0 C0.99 0 1.98 0 3 0 C3.33 1.98 3.66 3.96 4 6 C2.02 6.99 2.02 6.99 0 8 C0 5.36 0 2.72 0 0 Z " fill="#0476E8" transform="translate(751,455)"/>
<path d="M0 0 C3.99500618 1.3697164 6.80009492 3.25722422 10 6 C6.43855901 6.19785783 3.95545121 6.11103658 1 4 C0.25 1.875 0.25 1.875 0 0 Z " fill="#1D75CB" transform="translate(744,449)"/>
<path d="M0 0 C1.21816406 0.03480469 1.21816406 0.03480469 2.4609375 0.0703125 C3.68683594 0.09738281 3.68683594 0.09738281 4.9375 0.125 C5.87722656 0.15980469 5.87722656 0.15980469 6.8359375 0.1953125 C6.5059375 0.8553125 6.1759375 1.5153125 5.8359375 2.1953125 C3.55078125 2.828125 3.55078125 2.828125 0.7734375 3.3203125 C-0.14566406 3.48789062 -1.06476562 3.65546875 -2.01171875 3.828125 C-3.07712891 4.00988281 -3.07712891 4.00988281 -4.1640625 4.1953125 C-4.1640625 1.13098089 -2.96049401 0.2671926 0 0 Z " fill="#1459B4" transform="translate(689.1640625,546.8046875)"/>
<path d="M0 0 C0.66 0.33 1.32 0.66 2 1 C-3.14285714 6.57142857 -3.14285714 6.57142857 -7 7 C-5.55609075 3.19333016 -3.65047197 1.73397418 0 0 Z " fill="#1E70CB" transform="translate(410,449)"/>
<path d="M0 0 C1.98 0 3.96 0 6 0 C1.375 4.875 1.375 4.875 -2 6 C-2 5.34 -2 4.68 -2 4 C-1.34 4 -0.68 4 0 4 C0 2.68 0 1.36 0 0 Z " fill="#1360BE" transform="translate(719,530)"/>
<path d="M0 0 C0.66 0.33 1.32 0.66 2 1 C0.02 3.31 -1.96 5.62 -4 8 C-4.66 7.34 -5.32 6.68 -6 6 C-5.34 6 -4.68 6 -4 6 C-4 5.01 -4 4.02 -4 3 C-3.34 3 -2.68 3 -2 3 C-2 2.34 -2 1.68 -2 1 C-1.34 0.67 -0.68 0.34 0 0 Z " fill="#1A6CD0" transform="translate(741,511)"/>
<path d="M0 0 C2.26609984 4.53219967 1.92735976 6.17772925 1 11 C0.01 10.67 -0.98 10.34 -2 10 C-1.34 6.7 -0.68 3.4 0 0 Z " fill="#0F6BE3" transform="translate(381,487)"/>
<path d="M0 0 C0.66 0.33 1.32 0.66 2 1 C0.375 3 0.375 3 -2 5 C-5.25 5.25 -5.25 5.25 -8 5 C-5.31158141 2.74754119 -3.35358125 1.11786042 0 0 Z " fill="#1F6BBD" transform="translate(420,444)"/>
<path d="M0 0 C0.99 0.33 1.98 0.66 3 1 C1.35830472 3.02054804 -0.30911778 5.02043058 -2 7 C-2.33 7 -2.66 7 -3 7 C-3 5.35 -3 3.7 -3 2 C-2.01 2 -1.02 2 0 2 C0 1.34 0 0.68 0 0 Z " fill="#1761BD" transform="translate(733,519)"/>
<path d="M0 0 C0 0.66 0 1.32 0 2 C0.66 2.33 1.32 2.66 2 3 C-0.31 3.33 -2.62 3.66 -5 4 C-5 3.01 -5 2.02 -5 1 C-2 0 -2 0 0 0 Z " fill="#0770E4" transform="translate(431,442)"/>
<path d="M0 0 C1.98 0.99 1.98 0.99 4 2 C3.67 4.31 3.34 6.62 3 9 C0.23776722 6.23776722 0.42143709 3.79293383 0 0 Z " fill="#0F69D0" transform="translate(382,519)"/>
<path d="M0 0 C0.33 1.32 0.66 2.64 1 4 C-0.875 4.625 -0.875 4.625 -3 5 C-3.66 4.34 -4.32 3.68 -5 3 C-3.35 2.01 -1.7 1.02 0 0 Z " fill="#096DEC" transform="translate(401,459)"/>
</svg>
